<svg xmlns="http://www.w3.org/2000/svg" version="1.1" xmlns:xlink="http://www.w3.org/1999/xlink" xmlns:svgjs="http://svgjs.dev/svgjs" width="1000" height="1000" viewBox="0 0 1000 1000"><g transform="matrix(1,0,0,1,0,0)"><svg viewBox="0 0 280 280" data-background-color="#0074d9" preserveAspectRatio="xMidYMid meet" height="1000" width="1000" xmlns="http://www.w3.org/2000/svg" xmlns:xlink="http://www.w3.org/1999/xlink"><g id="tight-bounds" transform="matrix(1,0,0,1,0,0)"><svg viewBox="0 0 280 280" height="280" width="280"><g><svg viewBox="0 0 280 280" height="280" width="280"><g><svg viewBox="0 0 280 280" height="280" width="280"><g id="textblocktransform"><svg viewBox="0 0 280 280" height="280" width="280" id="textblock"><g><svg viewBox="0 0 280 280" height="280" width="280"><g transform="matrix(1,0,0,1,74.00336708925556,74.00409997422662)"><svg viewBox="0 0 131.99326582148888 131.99180005154676" height="131.99180005154676" width="131.99326582148888"><g><svg xmlns="http://www.w3.org/2000/svg" xmlns:xlink="http://www.w3.org/1999/xlink" version="1.1" x="0" y="0" viewBox="4.9670000076293945 5 90.0009994506836 90" enable-background="new 0 0 100 100" xml:space="preserve" height="131.99180005154676" width="131.99326582148888" class="icon-o-0" data-fill-palette-color="accent" id="o-0"><g fill="#ffffff" data-fill-palette-color="accent"><polygon points="81.588,69.219 76.042,77.733 49.901,5 30.566,58.797 24.486,43.546 4.967,95 17.555,95 45,95 64.794,95 82.249,95    94.968,95  " fill="#ffffff" data-fill-palette-color="accent"></polygon></g></svg></g></svg></g><g><path d="M8.661 84.525l1.196-3.369 26.352 9.357-1.197 3.37-11.717-4.161-4.715 13.279 11.717 4.161-1.2 3.378-26.351-9.357 1.199-3.379 11.576 4.111 4.716-13.279z" fill="#ffffff" data-fill-palette-color="primary"></path><path d="M60.946 54.475l10.168-8.93 2.043 2.326-12.861 11.296-18.454-21.009 12.726-11.178 2.043 2.326-10.032 8.812 6.109 6.955 8.644-7.592 2.05 2.334-8.644 7.592z" fill="#ffffff" data-fill-palette-color="primary"></path><path d="M118.594 0.799l3.485-0.799 6.252 27.256-3.816 0.875-18.312-18.321 4.908 21.396-3.494 0.801-6.252-27.255 3.777-0.867 18.36 18.31z" fill="#ffffff" data-fill-palette-color="primary"></path><path d="M168.294 30.685l6.361-27.23 3.491 0.815-6.361 27.23z" fill="#ffffff" data-fill-palette-color="primary"></path><path d="M213.455 54.826c-2.779-2.228-4.845-4.739-6.199-7.531v0l2.124-2.649c1.266 2.944 3.278 5.522 6.037 7.734v0c1.595 1.279 3.029 1.879 4.304 1.8 1.279-0.084 2.356-0.671 3.23-1.762v0c0.833-1.039 1.118-2.091 0.854-3.156-0.268-1.06-0.91-2.313-1.926-3.759v0l-1.519-2.114c-0.849-1.219-1.5-2.355-1.952-3.408-0.443-1.055-0.61-2.192-0.502-3.412 0.113-1.215 0.686-2.467 1.718-3.755v0c1.645-2.052 3.499-3.134 5.561-3.247 2.062-0.113 4.194 0.714 6.397 2.479v0c1.288 1.033 2.325 2.06 3.109 3.083 0.786 1.031 1.514 2.209 2.186 3.532v0l-2.074 2.586c-1.113-2.625-2.84-4.876-5.183-6.754v0c-1.418-1.137-2.721-1.636-3.909-1.496-1.178 0.139-2.23 0.785-3.154 1.938v0c-0.825 1.071-1.125 2.106-0.902 3.104 0.223 0.998 0.843 2.221 1.859 3.668v0l1.542 2.132c0.911 1.269 1.602 2.445 2.072 3.531 0.47 1.085 0.632 2.239 0.487 3.463-0.15 1.22-0.748 2.481-1.793 3.785v0c-1.54 1.889-3.409 2.857-5.606 2.903-2.201 0.053-4.455-0.846-6.761-2.695z" fill="#ffffff" data-fill-palette-color="primary"></path><path d="M275.849 96.661l1.405 3.287-25.713 10.991-1.405-3.288 11.433-4.887-5.538-12.957-11.433 4.886-1.409-3.296 25.713-10.991 1.409 3.297-11.296 4.828 5.539 12.957z" fill="#ffffff" data-fill-palette-color="primary"></path><path d="M42.606 190.946l1.225 3.433-26.826 9.573-1.225-3.434 11.927-4.256-4.823-13.516-11.927 4.256-1.225-3.433 26.826-9.573 1.225 3.433-11.786 4.206 4.823 13.516z" fill="#ffffff" data-fill-palette-color="primary"></path><path d="M51.602 243.519l10.366 9.082-2.08 2.374-13.108-11.485 18.77-21.423 12.973 11.366-2.08 2.374-10.231-8.964-6.213 7.091 8.812 7.72-2.087 2.381-8.811-7.72z" fill="#ffffff" data-fill-palette-color="primary"></path><path d="M126.887 251.421l3.553 0.813-6.349 27.766-3.885-0.888-8.674-24.922-4.985 21.798-3.554-0.813 6.35-27.766 3.846 0.88 8.713 24.93z" fill="#ffffff" data-fill-palette-color="primary"></path><path d="M172.941 276.506l-6.462-27.741 3.551-0.827 6.461 27.741z" fill="#ffffff" data-fill-palette-color="primary"></path><path d="M226.943 249.495c-2.841 2.268-5.799 3.766-8.874 4.492v0l-2.156-2.701c3.204-0.607 6.216-2.037 9.036-4.288v0c1.623-1.296 2.538-2.589 2.744-3.878 0.21-1.284-0.131-2.485-1.025-3.604v0c-0.843-1.056-1.823-1.569-2.94-1.538-1.121 0.026-2.511 0.382-4.17 1.068v0l-2.446 1.034c-1.4 0.573-2.676 0.965-3.828 1.177-1.142 0.213-2.305 0.128-3.488-0.256-1.193-0.385-2.313-1.233-3.361-2.544v0c-1.67-2.092-2.332-4.174-1.986-6.248 0.351-2.078 1.651-4.015 3.898-5.81v0c1.311-1.047 2.564-1.847 3.758-2.4 1.194-0.553 2.525-1.015 3.993-1.386v0l2.112 2.646c-2.858 0.518-5.481 1.731-7.868 3.638v0c-1.446 1.155-2.232 2.337-2.359 3.544-0.126 1.208 0.281 2.4 1.22 3.576v0c0.877 1.055 1.836 1.584 2.878 1.587 1.042 0.003 2.395-0.34 4.059-1.03v0l2.478-1.058c1.457-0.618 2.777-1.041 3.958-1.269 1.186-0.222 2.371-0.125 3.556 0.291 1.18 0.421 2.301 1.298 3.365 2.63v0c1.53 1.948 2.074 4.022 1.633 6.223-0.445 2.196-1.841 4.23-4.187 6.104z" fill="#ffffff" data-fill-palette-color="primary"></path><path d="M242.856 176.466l1.442-3.348 26.16 11.266-1.442 3.348-11.631-5.009-5.677 13.181 11.631 5.009-1.442 3.348-26.16-11.266 1.442-3.348 11.493 4.949 5.677-13.18z" fill="#ffffff" data-fill-palette-color="primary"></path><path d="M3.167 143.565c0-6.009 4.871-10.88 10.881-10.88 6.009 0 10.88 4.871 10.88 10.88 0 6.009-4.871 10.88-10.88 10.881-6.009 0-10.88-4.871-10.881-10.881z" fill="#ffffff" data-fill-palette-color="primary"></path><path d="M254.843 143.565c0-6.009 4.871-10.88 10.881-10.88 6.009 0 10.88 4.871 10.88 10.88 0 6.009-4.871 10.88-10.88 10.881-6.009 0-10.88-4.871-10.881-10.881z" fill="#ffffff" data-fill-palette-color="primary"></path></g></svg></g></svg></g></svg></g></svg></g><defs></defs></svg><rect width="280" height="280" fill="none" stroke="none" visibility="hidden"></rect></g></svg></g></svg>